<svg xmlns="http://www.w3.org/2000/svg" viewBox="0 0 16 16">
  <path fill="#f8fafc" d="M4 1.75a1.75 1.75 0 0 1 1 3.19v2.81h1.75A2.25 2.25 0 0 0 9 5.5v-.56a1.75 1.75 0 1 1 1.5 0v.56a3.75 3.75 0 0 1-3.75 3.75H5v1.81a1.75 1.75 0 1 1-1.5 0V4.94A1.75 1.75 0 0 1 4 1.75Zm0 1.5a.25.25 0 1 0 0 .5.25.25 0 0 0 0-.5Zm5.75 0a.25.25 0 1 0 0 .5.25.25 0 0 0 0-.5ZM4 12.25a.25.25 0 1 0 0 .5.25.25 0 0 0 0-.5Zm8.25-3.75.42 1.08 1.08.42-1.08.42-.42 1.08-.42-1.08-1.08-.42 1.08-.42.42-1.08Zm-1.75 3 .32.82.82.32-.82.32-.32.82-.32-.82-.82-.32.82-.32.32-.82Z"/>
</svg>
