<svg xmlns="http://www.w3.org/2000/svg" viewBox="0 0 256 256" role="img" aria-labelledby="title desc">
  <title id="title">Generate Commit by Awadree icon</title>
  <desc id="desc">A commit graph with a generated message sparkle in a rounded square.</desc>
  <defs>
    <linearGradient id="bg" x1="40" x2="216" y1="24" y2="232" gradientUnits="userSpaceOnUse">
      <stop offset="0" stop-color="#16243D"/>
      <stop offset="0.5" stop-color="#263B7A"/>
      <stop offset="1" stop-color="#1F7A68"/>
    </linearGradient>
    <linearGradient id="panel" x1="74" x2="196" y1="82" y2="178" gradientUnits="userSpaceOnUse">
      <stop offset="0" stop-color="#F8FAFC"/>
      <stop offset="1" stop-color="#DCEBFF"/>
    </linearGradient>
    <filter id="shadow" x="-20%" y="-20%" width="140%" height="140%">
      <feDropShadow dx="0" dy="10" stdDeviation="12" flood-color="#020617" flood-opacity="0.28"/>
    </filter>
  </defs>
  <rect width="256" height="256" rx="56" fill="url(#bg)"/>
  <path d="M72 58v122" stroke="#8FE7CE" stroke-width="14" stroke-linecap="round"/>
  <circle cx="72" cy="76" r="20" fill="#8FE7CE"/>
  <circle cx="72" cy="180" r="20" fill="#8FE7CE"/>
  <path d="M72 128h38c17 0 31-14 31-31V76" fill="none" stroke="#8FE7CE" stroke-width="14" stroke-linecap="round"/>
  <circle cx="141" cy="76" r="20" fill="#8FE7CE"/>
  <g filter="url(#shadow)">
    <rect x="88" y="102" width="112" height="78" rx="18" fill="url(#panel)"/>
    <path d="M111 127h58M111 149h39" stroke="#263B7A" stroke-width="10" stroke-linecap="round"/>
  </g>
  <path d="M188 61l7 18 18 7-18 7-7 18-7-18-18-7 18-7 7-18z" fill="#FDE68A"/>
  <path d="M206 151l5 12 12 5-12 5-5 12-5-12-12-5 12-5 5-12z" fill="#FDE68A"/>
</svg>
